<svg width="48" height="48" viewBox="0 0 48 48" fill="none" xmlns="http://www.w3.org/2000/svg">
<circle cx="24" cy="24" r="24" fill="#D9D9D9"/>
<path fill-rule="evenodd" clip-rule="evenodd" d="M30.6668 19C30.6668 22.6819 27.682 25.6667 24.0002 25.6667C20.3183 25.6667 17.3335 22.6819 17.3335 19C17.3335 15.3181 20.3183 12.3334 24.0002 12.3334C27.682 12.3334 30.6668 15.3181 30.6668 19ZM27.3335 19C27.3335 20.841 25.8412 22.3334 24.0002 22.3334C22.1592 22.3334 20.6668 20.841 20.6668 19C20.6668 17.1591 22.1592 15.6667 24.0002 15.6667C25.8412 15.6667 27.3335 17.1591 27.3335 19Z" fill="#A7A7A7"/>
<path fill-rule="evenodd" clip-rule="evenodd" d="M23.9998 5.66663C13.8746 5.66663 5.6665 13.8747 5.6665 24C5.6665 34.1251 13.8746 42.3333 23.9998 42.3333C34.125 42.3333 42.3332 34.1251 42.3332 24C42.3332 13.8747 34.125 5.66663 23.9998 5.66663ZM8.99984 24C8.99984 27.4836 10.1874 30.69 12.1798 33.2361C14.9206 29.6481 19.2436 27.3333 24.1073 27.3333C28.9078 27.3333 33.1818 29.5885 35.9273 33.0971C37.8548 30.5738 38.9998 27.4206 38.9998 24C38.9998 15.7157 32.2842 8.99996 23.9998 8.99996C15.7156 8.99996 8.99984 15.7157 8.99984 24ZM23.9998 39C20.4161 39 17.1259 37.7431 14.546 35.6463C16.6557 32.6353 20.1516 30.6666 24.1073 30.6666C28.0138 30.6666 31.472 32.5868 33.5895 35.5348C30.9897 37.6985 27.6467 39 23.9998 39Z" fill="#A7A7A7"/>
</svg>
