<svg width="321" height="192" viewBox="0 0 321 192" fill="none" xmlns="http://www.w3.org/2000/svg">
<rect x="321" y="192" width="321" height="192" rx="8" transform="rotate(180 321 192)" fill="#F3F3F3"/>
<path d="M131 111L148.198 93.8025C149.604 92.3965 151.511 91.6066 153.5 91.6066C155.489 91.6066 157.396 92.3965 158.803 93.8025L176 111M168.5 103.5L174.448 97.5525C175.854 96.1465 177.761 95.3566 179.75 95.3566C181.739 95.3566 183.646 96.1465 185.053 97.5525L191 103.5M168.5 81H168.538M138.5 126H183.5C185.489 126 187.397 125.21 188.803 123.803C190.21 122.397 191 120.489 191 118.5V73.5C191 71.5109 190.21 69.6032 188.803 68.1967C187.397 66.7902 185.489 66 183.5 66H138.5C136.511 66 134.603 66.7902 133.197 68.1967C131.79 69.6032 131 71.5109 131 73.5V118.5C131 120.489 131.79 122.397 133.197 123.803C134.603 125.21 136.511 126 138.5 126Z" stroke="#AFAFAF" stroke-width="4" stroke-linecap="round" stroke-linejoin="round"/>
</svg>
