<svg width="222" height="141" viewBox="0 0 222 141" fill="none" xmlns="http://www.w3.org/2000/svg">
<rect x="2" y="2" width="218" height="137" rx="2" stroke="#8F8F8F" stroke-width="4" stroke-dasharray="4 4"/>
<path d="M111 29.1926C99.053 29.1926 89.3334 37.7049 89.3334 48.1678C89.3334 58.6307 99.053 67.1429 111 67.1429C122.947 67.1429 132.667 58.6307 132.667 48.1678C132.667 37.7049 122.947 29.1926 111 29.1926ZM111 63.3479C101.443 63.3479 93.6667 56.5377 93.6667 48.1678C93.6667 39.7978 101.443 32.9877 111 32.9877C120.557 32.9877 128.333 39.7978 128.333 48.1678C128.333 56.5377 120.557 63.3479 111 63.3479Z" fill="#8B8B8B"/>
<path d="M117.129 53.534C116.337 54.2253 115.402 54.7779 114.373 55.162C112.522 55.8467 110.456 55.9467 108.529 55.4448C106.602 54.9429 104.935 53.8704 103.811 52.4106L100.219 54.534C101.156 55.7448 102.348 56.7881 103.731 57.6079C105.138 58.4416 106.72 59.0238 108.385 59.3214C110.111 59.6298 111.891 59.6298 113.617 59.3214C115.282 59.0234 116.863 58.4412 118.271 57.6079C118.949 57.2057 119.597 56.7389 120.191 56.2209C120.78 55.7066 121.318 55.1374 121.781 54.534L118.189 52.4106C117.878 52.8139 117.523 53.19 117.129 53.534Z" fill="#8B8B8B"/>
<path d="M103.417 48.1678C105.212 48.1678 106.667 46.8934 106.667 45.3215C106.667 43.7495 105.212 42.4752 103.417 42.4752C101.622 42.4752 100.167 43.7495 100.167 45.3215C100.167 46.8934 101.622 48.1678 103.417 48.1678Z" fill="#8B8B8B"/>
<path d="M118.568 48.1412C120.355 48.1412 121.803 46.8728 121.803 45.3082C121.803 43.7436 120.355 42.4752 118.568 42.4752C116.782 42.4752 115.333 43.7436 115.333 45.3082C115.333 46.8728 116.782 48.1412 118.568 48.1412Z" fill="#8B8B8B"/>
<path d="M58.642 103.453H56.392L60.4886 91.817H63.0909L67.1932 103.453H64.9432L61.8352 94.2034H61.7443L58.642 103.453ZM58.7159 98.8909H64.8523V100.584H58.7159V98.8909ZM71.608 103.607C70.9223 103.607 70.3087 103.431 69.767 103.078C69.2254 102.726 68.7973 102.215 68.483 101.544C68.1686 100.874 68.0114 100.059 68.0114 99.1011C68.0114 98.1314 68.1705 97.3132 68.4886 96.6466C68.8106 95.9761 69.2443 95.4704 69.7898 95.1295C70.3352 94.7848 70.9432 94.6125 71.6136 94.6125C72.125 94.6125 72.5455 94.6996 72.875 94.8738C73.2045 95.0443 73.4659 95.2507 73.6591 95.4931C73.8523 95.7318 74.0019 95.9572 74.108 96.1693H74.1932V91.817H76.2557V103.453H74.233V102.078H74.108C74.0019 102.29 73.8485 102.516 73.6477 102.755C73.447 102.989 73.1818 103.19 72.8523 103.357C72.5227 103.523 72.108 103.607 71.608 103.607ZM72.1818 101.919C72.6174 101.919 72.9886 101.802 73.2955 101.567C73.6023 101.328 73.8352 100.997 73.9943 100.573C74.1534 100.148 74.233 99.6541 74.233 99.0897C74.233 98.5253 74.1534 98.0348 73.9943 97.6181C73.839 97.2015 73.608 96.8776 73.3011 96.6466C72.9981 96.4155 72.625 96.3 72.1818 96.3C71.7235 96.3 71.3409 96.4193 71.0341 96.6579C70.7273 96.8966 70.4962 97.2261 70.3409 97.6466C70.1856 98.067 70.108 98.5481 70.108 99.0897C70.108 99.6352 70.1856 100.122 70.3409 100.55C70.5 100.974 70.733 101.309 71.0398 101.556C71.3504 101.798 71.7311 101.919 72.1818 101.919ZM78.4474 103.453V94.7261H80.5043V103.453H78.4474ZM79.4815 93.4875C79.1558 93.4875 78.8755 93.3795 78.6406 93.1636C78.4058 92.9439 78.2884 92.6806 78.2884 92.3738C78.2884 92.0632 78.4058 91.8 78.6406 91.5841C78.8755 91.3644 79.1558 91.2545 79.4815 91.2545C79.8111 91.2545 80.0914 91.3644 80.3224 91.5841C80.5573 91.8 80.6747 92.0632 80.6747 92.3738C80.6747 92.6806 80.5573 92.9439 80.3224 93.1636C80.0914 93.3795 79.8111 93.4875 79.4815 93.4875ZM86.4261 103.624C85.5549 103.624 84.8068 103.433 84.1818 103.05C83.5606 102.667 83.0814 102.139 82.7443 101.465C82.411 100.787 82.2443 100.006 82.2443 99.1238C82.2443 98.2375 82.4148 97.4553 82.7557 96.7772C83.0966 96.0954 83.5777 95.5651 84.1989 95.1863C84.8239 94.8037 85.5625 94.6125 86.4148 94.6125C87.1231 94.6125 87.75 94.7431 88.2955 95.0045C88.8447 95.2621 89.2822 95.6276 89.608 96.1011C89.9337 96.5708 90.1193 97.12 90.1648 97.7488H88.1989C88.1193 97.3284 87.9299 96.978 87.6307 96.6977C87.3352 96.4136 86.9394 96.2716 86.4432 96.2716C86.0227 96.2716 85.6534 96.3852 85.3352 96.6125C85.017 96.8359 84.7689 97.1579 84.5909 97.5784C84.4167 97.9988 84.3295 98.5026 84.3295 99.0897C84.3295 99.6844 84.4167 100.196 84.5909 100.624C84.7652 101.048 85.0095 101.376 85.3239 101.607C85.642 101.834 86.0152 101.948 86.4432 101.948C86.7462 101.948 87.017 101.891 87.2557 101.777C87.4981 101.66 87.7008 101.491 87.8636 101.272C88.0265 101.052 88.1383 100.785 88.1989 100.47H90.1648C90.1155 101.088 89.9337 101.635 89.6193 102.112C89.3049 102.586 88.8769 102.957 88.3352 103.226C87.7936 103.491 87.1572 103.624 86.4261 103.624ZM91.8537 103.453V94.7261H93.9105V103.453H91.8537ZM92.8878 93.4875C92.562 93.4875 92.2817 93.3795 92.0469 93.1636C91.812 92.9439 91.6946 92.6806 91.6946 92.3738C91.6946 92.0632 91.812 91.8 92.0469 91.5841C92.2817 91.3644 92.562 91.2545 92.8878 91.2545C93.2173 91.2545 93.4976 91.3644 93.7287 91.5841C93.9635 91.8 94.081 92.0632 94.081 92.3738C94.081 92.6806 93.9635 92.9439 93.7287 93.1636C93.4976 93.3795 93.2173 93.4875 92.8878 93.4875ZM99.8324 103.624C98.9801 103.624 98.2415 103.436 97.6165 103.061C96.9915 102.686 96.5066 102.162 96.1619 101.487C95.821 100.813 95.6506 100.025 95.6506 99.1238C95.6506 98.2223 95.821 97.4325 96.1619 96.7545C96.5066 96.0765 96.9915 95.55 97.6165 95.175C98.2415 94.8 98.9801 94.6125 99.8324 94.6125C100.685 94.6125 101.423 94.8 102.048 95.175C102.673 95.55 103.156 96.0765 103.497 96.7545C103.842 97.4325 104.014 98.2223 104.014 99.1238C104.014 100.025 103.842 100.813 103.497 101.487C103.156 102.162 102.673 102.686 102.048 103.061C101.423 103.436 100.685 103.624 99.8324 103.624ZM99.8438 101.976C100.306 101.976 100.692 101.849 101.003 101.595C101.313 101.338 101.545 100.993 101.696 100.561C101.851 100.13 101.929 99.6484 101.929 99.1181C101.929 98.5841 101.851 98.1011 101.696 97.6693C101.545 97.2337 101.313 96.8871 101.003 96.6295C100.692 96.3719 100.306 96.2431 99.8438 96.2431C99.3703 96.2431 98.9763 96.3719 98.6619 96.6295C98.3513 96.8871 98.1184 97.2337 97.9631 97.6693C97.8116 98.1011 97.7358 98.5841 97.7358 99.1181C97.7358 99.6484 97.8116 100.13 97.9631 100.561C98.1184 100.993 98.3513 101.338 98.6619 101.595C98.9763 101.849 99.3703 101.976 99.8438 101.976ZM107.817 98.3397V103.453H105.76V94.7261H107.726V96.2091H107.828C108.029 95.7204 108.349 95.3322 108.788 95.0443C109.232 94.7564 109.779 94.6125 110.43 94.6125C111.033 94.6125 111.557 94.7412 112.004 94.9988C112.455 95.2564 112.804 95.6295 113.05 96.1181C113.3 96.6068 113.423 97.1996 113.419 97.8966V103.453H111.362V98.2147C111.362 97.6314 111.211 97.175 110.908 96.8454C110.608 96.5159 110.194 96.3511 109.663 96.3511C109.304 96.3511 108.983 96.4306 108.703 96.5897C108.427 96.745 108.209 96.9704 108.05 97.2659C107.894 97.5613 107.817 97.9193 107.817 98.3397ZM118.021 103.63C117.468 103.63 116.97 103.531 116.527 103.334C116.088 103.133 115.739 102.838 115.482 102.448C115.228 102.058 115.101 101.576 115.101 101.005C115.101 100.512 115.192 100.105 115.374 99.7829C115.555 99.4609 115.804 99.2034 116.118 99.0102C116.432 98.817 116.786 98.6712 117.18 98.5727C117.578 98.4704 117.989 98.3966 118.413 98.3511C118.925 98.2981 119.339 98.2507 119.658 98.2091C119.976 98.1636 120.207 98.0954 120.351 98.0045C120.499 97.9098 120.572 97.764 120.572 97.567V97.5329C120.572 97.1049 120.446 96.7734 120.192 96.5386C119.938 96.3037 119.572 96.1863 119.095 96.1863C118.591 96.1863 118.192 96.2962 117.896 96.5159C117.605 96.7356 117.408 96.995 117.305 97.2943L115.385 97.0216C115.536 96.4912 115.786 96.0481 116.135 95.692C116.483 95.3322 116.91 95.0632 117.413 94.8852C117.917 94.7034 118.474 94.6125 119.084 94.6125C119.504 94.6125 119.923 94.6617 120.339 94.7602C120.756 94.8587 121.137 95.0216 121.482 95.2488C121.826 95.4723 122.103 95.7772 122.311 96.1636C122.523 96.55 122.629 97.0329 122.629 97.6125V103.453H120.652V102.255H120.584C120.459 102.497 120.283 102.724 120.055 102.936C119.832 103.145 119.55 103.313 119.209 103.442C118.872 103.567 118.476 103.63 118.021 103.63ZM118.555 102.118C118.968 102.118 119.326 102.037 119.629 101.874C119.932 101.707 120.165 101.487 120.328 101.215C120.495 100.942 120.578 100.645 120.578 100.323V99.2943C120.514 99.3473 120.404 99.3966 120.249 99.442C120.097 99.4875 119.927 99.5272 119.737 99.5613C119.548 99.5954 119.36 99.6257 119.175 99.6522C118.989 99.6787 118.828 99.7015 118.692 99.7204C118.385 99.7621 118.11 99.8303 117.868 99.925C117.625 100.02 117.434 100.152 117.294 100.323C117.154 100.489 117.084 100.705 117.084 100.97C117.084 101.349 117.222 101.635 117.499 101.828C117.775 102.022 118.127 102.118 118.555 102.118ZM124.697 103.453V94.7261H126.692V96.1806H126.783C126.942 95.6769 127.214 95.2886 127.601 95.0159C127.991 94.7394 128.436 94.6011 128.936 94.6011C129.05 94.6011 129.177 94.6068 129.317 94.6181C129.461 94.6257 129.58 94.639 129.675 94.6579V96.55C129.588 96.5197 129.449 96.4931 129.26 96.4704C129.074 96.4439 128.894 96.4306 128.72 96.4306C128.345 96.4306 128.008 96.5121 127.709 96.675C127.413 96.8341 127.18 97.0556 127.01 97.3397C126.839 97.6238 126.754 97.9515 126.754 98.3227V103.453H124.697ZM139.43 94.7261V96.317H134.271V94.7261H139.43ZM135.561 103.453V93.9022C135.561 93.3151 135.682 92.8265 135.925 92.4363C136.171 92.0462 136.5 91.7545 136.913 91.5613C137.326 91.3681 137.785 91.2716 138.288 91.2716C138.644 91.2716 138.961 91.3 139.237 91.3568C139.514 91.4136 139.718 91.4647 139.851 91.5102L139.442 93.1011C139.355 93.0746 139.245 93.0481 139.112 93.0216C138.98 92.9912 138.832 92.9761 138.669 92.9761C138.286 92.9761 138.016 93.0689 137.857 93.2545C137.701 93.4363 137.624 93.6977 137.624 94.0386V103.453H135.561ZM144.52 103.624C143.668 103.624 142.929 103.436 142.304 103.061C141.679 102.686 141.194 102.162 140.849 101.487C140.509 100.813 140.338 100.025 140.338 99.1238C140.338 98.2223 140.509 97.4325 140.849 96.7545C141.194 96.0765 141.679 95.55 142.304 95.175C142.929 94.8 143.668 94.6125 144.52 94.6125C145.372 94.6125 146.111 94.8 146.736 95.175C147.361 95.55 147.844 96.0765 148.185 96.7545C148.529 97.4325 148.702 98.2223 148.702 99.1238C148.702 100.025 148.529 100.813 148.185 101.487C147.844 102.162 147.361 102.686 146.736 103.061C146.111 103.436 145.372 103.624 144.52 103.624ZM144.531 101.976C144.993 101.976 145.38 101.849 145.69 101.595C146.001 101.338 146.232 100.993 146.384 100.561C146.539 100.13 146.616 99.6484 146.616 99.1181C146.616 98.5841 146.539 98.1011 146.384 97.6693C146.232 97.2337 146.001 96.8871 145.69 96.6295C145.38 96.3719 144.993 96.2431 144.531 96.2431C144.058 96.2431 143.664 96.3719 143.349 96.6295C143.039 96.8871 142.806 97.2337 142.651 97.6693C142.499 98.1011 142.423 98.5841 142.423 99.1181C142.423 99.6484 142.499 100.13 142.651 100.561C142.806 100.993 143.039 101.338 143.349 101.595C143.664 101.849 144.058 101.976 144.531 101.976ZM154.805 94.7261V96.317H149.788V94.7261H154.805ZM151.027 92.6352H153.084V100.828C153.084 101.105 153.125 101.317 153.209 101.465C153.296 101.609 153.41 101.707 153.55 101.76C153.69 101.813 153.845 101.84 154.016 101.84C154.144 101.84 154.262 101.83 154.368 101.811C154.478 101.792 154.561 101.775 154.618 101.76L154.964 103.368C154.855 103.406 154.697 103.448 154.493 103.493C154.292 103.539 154.046 103.565 153.754 103.573C153.239 103.588 152.775 103.51 152.362 103.34C151.949 103.165 151.622 102.897 151.379 102.533C151.141 102.169 151.023 101.715 151.027 101.169V92.6352ZM160.239 103.624C159.386 103.624 158.648 103.436 158.023 103.061C157.398 102.686 156.913 102.162 156.568 101.487C156.227 100.813 156.057 100.025 156.057 99.1238C156.057 98.2223 156.227 97.4325 156.568 96.7545C156.913 96.0765 157.398 95.55 158.023 95.175C158.648 94.8 159.386 94.6125 160.239 94.6125C161.091 94.6125 161.83 94.8 162.455 95.175C163.08 95.55 163.563 96.0765 163.903 96.7545C164.248 97.4325 164.42 98.2223 164.42 99.1238C164.42 100.025 164.248 100.813 163.903 101.487C163.563 102.162 163.08 102.686 162.455 103.061C161.83 103.436 161.091 103.624 160.239 103.624ZM160.25 101.976C160.712 101.976 161.098 101.849 161.409 101.595C161.72 101.338 161.951 100.993 162.102 100.561C162.258 100.13 162.335 99.6484 162.335 99.1181C162.335 98.5841 162.258 98.1011 162.102 97.6693C161.951 97.2337 161.72 96.8871 161.409 96.6295C161.098 96.3719 160.712 96.2431 160.25 96.2431C159.777 96.2431 159.383 96.3719 159.068 96.6295C158.758 96.8871 158.525 97.2337 158.369 97.6693C158.218 98.1011 158.142 98.5841 158.142 99.1181C158.142 99.6484 158.218 100.13 158.369 100.561C158.525 100.993 158.758 101.338 159.068 101.595C159.383 101.849 159.777 101.976 160.25 101.976Z" fill="#999999"/>
</svg>
