<svg width="32" height="32" viewBox="0 0 32 32" fill="none" xmlns="http://www.w3.org/2000/svg">
<g clip-path="url(#clip0_6301_105)">
<path d="M12 5.33337H6.66665C5.93027 5.33337 5.33331 5.93033 5.33331 6.66671V12C5.33331 12.7364 5.93027 13.3334 6.66665 13.3334H12C12.7364 13.3334 13.3333 12.7364 13.3333 12V6.66671C13.3333 5.93033 12.7364 5.33337 12 5.33337Z" stroke="#969696" stroke-width="2.5" stroke-linecap="round" stroke-linejoin="round"/>
<path d="M25.3334 5.33337H20C19.2636 5.33337 18.6667 5.93033 18.6667 6.66671V12C18.6667 12.7364 19.2636 13.3334 20 13.3334H25.3334C26.0697 13.3334 26.6667 12.7364 26.6667 12V6.66671C26.6667 5.93033 26.0697 5.33337 25.3334 5.33337Z" stroke="#969696" stroke-width="2.5" stroke-linecap="round" stroke-linejoin="round"/>
<path d="M12 18.6666H6.66665C5.93027 18.6666 5.33331 19.2636 5.33331 20V25.3333C5.33331 26.0697 5.93027 26.6666 6.66665 26.6666H12C12.7364 26.6666 13.3333 26.0697 13.3333 25.3333V20C13.3333 19.2636 12.7364 18.6666 12 18.6666Z" stroke="#969696" stroke-width="2.5" stroke-linecap="round" stroke-linejoin="round"/>
<path d="M25.3334 18.6666H20C19.2636 18.6666 18.6667 19.2636 18.6667 20V25.3333C18.6667 26.0697 19.2636 26.6666 20 26.6666H25.3334C26.0697 26.6666 26.6667 26.0697 26.6667 25.3333V20C26.6667 19.2636 26.0697 18.6666 25.3334 18.6666Z" stroke="#969696" stroke-width="2.5" stroke-linecap="round" stroke-linejoin="round"/>
</g>
<defs>
<clipPath id="clip0_6301_105">
<rect width="32" height="32" fill="#000"/>
</clipPath>
</defs>
</svg>
